<svg xmlns="http://www.w3.org/2000/svg" xmlns:xlink="http://www.w3.org/1999/xlink" width="268" zoomAndPan="magnify" viewBox="0 0 200.87999 30.000001" height="40" preserveAspectRatio="xMidYMid meet" version="1.0"><defs><g/><clipPath id="a2c9fc432b"><path d="M 3.183594 2.902344 L 34 2.902344 L 34 15 L 3.183594 15 Z M 3.183594 2.902344 " clip-rule="nonzero"/></clipPath><clipPath id="f0763d172e"><path d="M 9 7 L 44.074219 7 L 44.074219 25.328125 L 9 25.328125 Z M 9 7 " clip-rule="nonzero"/></clipPath></defs><g clip-path="url(#a2c9fc432b)"><path fill="#5d87ff" d="M 32.003906 2.914062 C 32.65625 2.914062 33.1875 3.441406 33.1875 4.089844 C 33.1875 4.230469 33.164062 4.371094 33.113281 4.5 L 29.269531 14.734375 L 10.289062 14.699219 C 8.230469 14.699219 6.5625 13.042969 6.5625 11.003906 C 6.5625 10.597656 6.628906 10.195312 6.761719 9.808594 L 6.796875 9.714844 L 26.554688 9.714844 L 27.246094 7.898438 L 6.910156 7.898438 C 4.851562 7.898438 3.183594 6.242188 3.183594 4.203125 C 3.183594 3.796875 3.25 3.394531 3.382812 3.011719 L 3.417969 2.914062 Z M 32.003906 2.914062 " fill-opacity="1" fill-rule="evenodd"/></g><g clip-path="url(#f0763d172e)"><path fill="#132747" d="M 19.496094 19.460938 C 21.039062 19.460938 21.796875 20.636719 21.21875 22.210938 C 20.597656 23.914062 18.667969 25.320312 16.96875 25.320312 C 15.425781 25.320312 14.671875 24.144531 15.246094 22.570312 C 15.871094 20.867188 17.800781 19.460938 19.496094 19.460938 Z M 35.238281 19.460938 C 36.78125 19.460938 37.535156 20.636719 36.960938 22.210938 C 36.339844 23.914062 34.410156 25.320312 32.710938 25.320312 C 31.167969 25.320312 30.414062 24.144531 30.988281 22.570312 C 31.609375 20.867188 33.539062 19.460938 35.238281 19.460938 Z M 28.613281 16.488281 L 26.730469 21.496094 L 22.464844 21.496094 C 22.609375 19.746094 21.425781 18.402344 19.496094 18.402344 C 17.589844 18.402344 15.550781 19.726562 14.570312 21.496094 L 13.667969 21.496094 C 11.609375 21.496094 9.941406 19.84375 9.941406 17.804688 C 9.941406 17.398438 10.007812 16.992188 10.140625 16.609375 L 10.175781 16.515625 Z M 39.707031 7.972656 C 41.808594 7.972656 43.578125 9.402344 44.074219 11.335938 L 37.386719 11.335938 L 37.363281 11.410156 C 37.222656 11.800781 37.152344 12.210938 37.152344 12.625 C 37.152344 14.644531 38.789062 16.285156 40.820312 16.316406 L 40.882812 16.320312 L 43.058594 16.320312 L 41.488281 20.5 C 41.265625 21.101562 40.6875 21.496094 40.042969 21.496094 L 38.207031 21.496094 C 38.347656 19.746094 37.167969 18.402344 35.238281 18.402344 C 33.332031 18.402344 31.289062 19.726562 30.3125 21.496094 L 28.445312 21.496094 L 33.527344 7.972656 Z M 39.707031 7.972656 " fill-opacity="1" fill-rule="evenodd"/></g><g fill="#132747" fill-opacity="1"><g transform="translate(49.278631, 14.819476)"><g><path d="M 5.09375 0 L 3.0625 0 L 3.0625 -2.875 L -0.1875 -8.921875 L 2.109375 -8.921875 L 3.953125 -5.359375 L 4.203125 -5.359375 L 6.0625 -8.921875 L 8.34375 -8.921875 L 5.09375 -2.875 Z M 5.09375 0 "/></g></g></g><g fill="#132747" fill-opacity="1"><g transform="translate(57.437521, 14.819476)"><g><path d="M 0.765625 0 L 0.765625 -6.5 L 2.421875 -6.5 L 2.546875 -5.921875 L 2.609375 -5.921875 C 2.765625 -6.109375 3 -6.269531 3.3125 -6.40625 C 3.625 -6.550781 4 -6.625 4.4375 -6.625 C 4.925781 -6.625 5.363281 -6.507812 5.75 -6.28125 C 6.144531 -6.0625 6.445312 -5.742188 6.65625 -5.328125 C 6.875 -4.921875 6.984375 -4.445312 6.984375 -3.90625 L 6.984375 0 L 5.0625 0 L 5.0625 -3.578125 C 5.0625 -3.941406 4.953125 -4.234375 4.734375 -4.453125 C 4.515625 -4.679688 4.226562 -4.796875 3.875 -4.796875 C 3.519531 -4.796875 3.234375 -4.679688 3.015625 -4.453125 C 2.796875 -4.234375 2.6875 -3.941406 2.6875 -3.578125 L 2.6875 0 Z M 0.765625 0 "/></g></g></g><g fill="#132747" fill-opacity="1"><g transform="translate(65.124725, 14.819476)"><g><path d="M 3.84375 0.125 C 3.195312 0.125 2.613281 -0.0195312 2.09375 -0.3125 C 1.582031 -0.601562 1.179688 -1.003906 0.890625 -1.515625 C 0.597656 -2.035156 0.453125 -2.613281 0.453125 -3.25 C 0.453125 -3.882812 0.597656 -4.457031 0.890625 -4.96875 C 1.179688 -5.488281 1.582031 -5.894531 2.09375 -6.1875 C 2.613281 -6.476562 3.195312 -6.625 3.84375 -6.625 C 4.488281 -6.625 5.070312 -6.476562 5.59375 -6.1875 C 6.113281 -5.894531 6.519531 -5.488281 6.8125 -4.96875 C 7.101562 -4.457031 7.25 -3.882812 7.25 -3.25 C 7.25 -2.613281 7.101562 -2.035156 6.8125 -1.515625 C 6.519531 -1.003906 6.113281 -0.601562 5.59375 -0.3125 C 5.070312 -0.0195312 4.488281 0.125 3.84375 0.125 Z M 3.84375 -1.65625 C 4.257812 -1.65625 4.609375 -1.800781 4.890625 -2.09375 C 5.179688 -2.394531 5.328125 -2.78125 5.328125 -3.25 C 5.328125 -3.71875 5.179688 -4.097656 4.890625 -4.390625 C 4.609375 -4.691406 4.257812 -4.84375 3.84375 -4.84375 C 3.425781 -4.84375 3.078125 -4.691406 2.796875 -4.390625 C 2.515625 -4.097656 2.375 -3.71875 2.375 -3.25 C 2.375 -2.78125 2.515625 -2.394531 2.796875 -2.09375 C 3.078125 -1.800781 3.425781 -1.65625 3.84375 -1.65625 Z M 3.84375 -1.65625 "/></g></g></g><g fill="#132747" fill-opacity="1"><g transform="translate(72.82468, 14.819476)"><g><path d="M 4.78125 0 L 2.734375 0 L 2.734375 -6.953125 L 0.25 -6.953125 L 0.25 -8.921875 L 7.265625 -8.921875 L 7.265625 -6.953125 L 4.78125 -6.953125 Z M 4.78125 0 "/></g></g></g><g fill="#132747" fill-opacity="1"><g transform="translate(80.346156, 14.819476)"><g><path d="M 0.765625 0 L 0.765625 -6.5 L 2.421875 -6.5 L 2.546875 -6 L 2.609375 -6 C 2.703125 -6.132812 2.847656 -6.25 3.046875 -6.34375 C 3.253906 -6.445312 3.492188 -6.5 3.765625 -6.5 L 5 -6.5 L 5 -4.671875 L 3.84375 -4.671875 C 3.070312 -4.671875 2.6875 -4.28125 2.6875 -3.5 L 2.6875 0 Z M 0.765625 0 "/></g></g></g><g fill="#132747" fill-opacity="1"><g transform="translate(85.52195, 14.819476)"><g><path d="M 2.828125 0.125 C 2.347656 0.125 1.925781 0.0351562 1.5625 -0.140625 C 1.195312 -0.316406 0.921875 -0.554688 0.734375 -0.859375 C 0.546875 -1.160156 0.453125 -1.5 0.453125 -1.875 C 0.453125 -2.519531 0.679688 -3.035156 1.140625 -3.421875 C 1.597656 -3.816406 2.257812 -4.015625 3.125 -4.015625 L 4.546875 -4.015625 L 4.546875 -4.125 C 4.546875 -4.40625 4.453125 -4.632812 4.265625 -4.8125 C 4.085938 -5 3.851562 -5.09375 3.5625 -5.09375 C 3.300781 -5.09375 3.09375 -5.035156 2.9375 -4.921875 C 2.789062 -4.804688 2.679688 -4.675781 2.609375 -4.53125 L 0.734375 -4.53125 C 0.773438 -4.882812 0.910156 -5.222656 1.140625 -5.546875 C 1.367188 -5.867188 1.691406 -6.128906 2.109375 -6.328125 C 2.523438 -6.523438 3.007812 -6.625 3.5625 -6.625 C 4.15625 -6.625 4.671875 -6.515625 5.109375 -6.296875 C 5.546875 -6.078125 5.882812 -5.773438 6.125 -5.390625 C 6.363281 -5.015625 6.484375 -4.59375 6.484375 -4.125 L 6.484375 0 L 4.8125 0 L 4.671875 -0.5625 L 4.609375 -0.5625 C 4.472656 -0.382812 4.242188 -0.222656 3.921875 -0.078125 C 3.597656 0.0546875 3.234375 0.125 2.828125 0.125 Z M 3.25 -1.359375 C 3.65625 -1.359375 3.972656 -1.46875 4.203125 -1.6875 C 4.429688 -1.914062 4.546875 -2.21875 4.546875 -2.59375 L 4.546875 -2.734375 L 3.375 -2.734375 C 3.039062 -2.734375 2.789062 -2.671875 2.625 -2.546875 C 2.46875 -2.429688 2.390625 -2.265625 2.390625 -2.046875 C 2.390625 -1.835938 2.460938 -1.671875 2.609375 -1.546875 C 2.753906 -1.421875 2.96875 -1.359375 3.25 -1.359375 Z M 3.25 -1.359375 "/></g></g></g><g fill="#132747" fill-opacity="1"><g transform="translate(92.699223, 14.819476)"><g><path d="M 0.765625 0 L 0.765625 -6.5 L 2.421875 -6.5 L 2.546875 -5.921875 L 2.609375 -5.921875 C 2.765625 -6.109375 3 -6.269531 3.3125 -6.40625 C 3.625 -6.550781 4 -6.625 4.4375 -6.625 C 4.925781 -6.625 5.363281 -6.507812 5.75 -6.28125 C 6.144531 -6.0625 6.445312 -5.742188 6.65625 -5.328125 C 6.875 -4.921875 6.984375 -4.445312 6.984375 -3.90625 L 6.984375 0 L 5.0625 0 L 5.0625 -3.578125 C 5.0625 -3.941406 4.953125 -4.234375 4.734375 -4.453125 C 4.515625 -4.679688 4.226562 -4.796875 3.875 -4.796875 C 3.519531 -4.796875 3.234375 -4.679688 3.015625 -4.453125 C 2.796875 -4.234375 2.6875 -3.941406 2.6875 -3.578125 L 2.6875 0 Z M 0.765625 0 "/></g></g></g><g fill="#132747" fill-opacity="1"><g transform="translate(100.386427, 14.819476)"><g><path d="M 3.28125 0.125 C 2.570312 0.125 1.992188 0.00390625 1.546875 -0.234375 C 1.109375 -0.472656 0.789062 -0.757812 0.59375 -1.09375 C 0.40625 -1.425781 0.3125 -1.738281 0.3125 -2.03125 L 2.1875 -2.03125 C 2.1875 -1.851562 2.273438 -1.691406 2.453125 -1.546875 C 2.640625 -1.410156 2.914062 -1.34375 3.28125 -1.34375 C 3.625 -1.34375 3.878906 -1.394531 4.046875 -1.5 C 4.210938 -1.601562 4.296875 -1.734375 4.296875 -1.890625 C 4.296875 -2.046875 4.238281 -2.171875 4.125 -2.265625 C 4.019531 -2.359375 3.828125 -2.425781 3.546875 -2.46875 L 2.578125 -2.625 C 1.085938 -2.851562 0.34375 -3.5 0.34375 -4.5625 C 0.34375 -4.9375 0.453125 -5.28125 0.671875 -5.59375 C 0.890625 -5.90625 1.21875 -6.15625 1.65625 -6.34375 C 2.09375 -6.53125 2.613281 -6.625 3.21875 -6.625 C 3.820312 -6.625 4.34375 -6.515625 4.78125 -6.296875 C 5.21875 -6.085938 5.546875 -5.816406 5.765625 -5.484375 C 5.984375 -5.160156 6.09375 -4.84375 6.09375 -4.53125 L 4.234375 -4.53125 C 4.234375 -4.695312 4.140625 -4.84375 3.953125 -4.96875 C 3.773438 -5.09375 3.53125 -5.15625 3.21875 -5.15625 C 2.90625 -5.15625 2.664062 -5.097656 2.5 -4.984375 C 2.332031 -4.867188 2.25 -4.738281 2.25 -4.59375 C 2.25 -4.34375 2.5 -4.179688 3 -4.109375 L 4.015625 -3.953125 C 5.472656 -3.742188 6.203125 -3.0625 6.203125 -1.90625 C 6.203125 -1.53125 6.09375 -1.1875 5.875 -0.875 C 5.65625 -0.570312 5.328125 -0.328125 4.890625 -0.140625 C 4.453125 0.0351562 3.914062 0.125 3.28125 0.125 Z M 3.28125 0.125 "/></g></g></g><g fill="#132747" fill-opacity="1"><g transform="translate(106.964535, 14.819476)"><g/></g></g><g fill="#132747" fill-opacity="1"><g transform="translate(110.406566, 14.819476)"><g><path d="M 2.9375 0 L 0.890625 0 L 0.890625 -8.921875 L 2.9375 -8.921875 Z M 2.9375 0 "/></g></g></g><g fill="#132747" fill-opacity="1"><g transform="translate(114.231048, 14.819476)"><g><path d="M 0.765625 0 L 0.765625 -6.5 L 2.421875 -6.5 L 2.546875 -5.921875 L 2.609375 -5.921875 C 2.765625 -6.109375 3 -6.269531 3.3125 -6.40625 C 3.625 -6.550781 4 -6.625 4.4375 -6.625 C 4.925781 -6.625 5.363281 -6.507812 5.75 -6.28125 C 6.144531 -6.0625 6.445312 -5.742188 6.65625 -5.328125 C 6.875 -4.921875 6.984375 -4.445312 6.984375 -3.90625 L 6.984375 0 L 5.0625 0 L 5.0625 -3.578125 C 5.0625 -3.941406 4.953125 -4.234375 4.734375 -4.453125 C 4.515625 -4.679688 4.226562 -4.796875 3.875 -4.796875 C 3.519531 -4.796875 3.234375 -4.679688 3.015625 -4.453125 C 2.796875 -4.234375 2.6875 -3.941406 2.6875 -3.578125 L 2.6875 0 Z M 0.765625 0 "/></g></g></g><g fill="#132747" fill-opacity="1"><g transform="translate(121.918252, 14.819476)"><g><path d="M 3.859375 0.125 C 3.210938 0.125 2.628906 -0.0195312 2.109375 -0.3125 C 1.597656 -0.601562 1.191406 -1.003906 0.890625 -1.515625 C 0.597656 -2.035156 0.453125 -2.613281 0.453125 -3.25 C 0.453125 -3.882812 0.597656 -4.457031 0.890625 -4.96875 C 1.191406 -5.488281 1.597656 -5.894531 2.109375 -6.1875 C 2.628906 -6.476562 3.210938 -6.625 3.859375 -6.625 C 4.492188 -6.625 5.039062 -6.492188 5.5 -6.234375 C 5.957031 -5.972656 6.316406 -5.640625 6.578125 -5.234375 C 6.835938 -4.828125 7.007812 -4.40625 7.09375 -3.96875 L 5.140625 -3.96875 C 5.066406 -4.207031 4.925781 -4.410156 4.71875 -4.578125 C 4.507812 -4.753906 4.222656 -4.84375 3.859375 -4.84375 C 3.441406 -4.84375 3.09375 -4.691406 2.8125 -4.390625 C 2.53125 -4.097656 2.390625 -3.71875 2.390625 -3.25 C 2.390625 -2.78125 2.53125 -2.394531 2.8125 -2.09375 C 3.09375 -1.789062 3.441406 -1.640625 3.859375 -1.640625 C 4.222656 -1.640625 4.507812 -1.726562 4.71875 -1.90625 C 4.925781 -2.09375 5.066406 -2.3125 5.140625 -2.5625 L 7.09375 -2.5625 C 7.007812 -2.113281 6.835938 -1.679688 6.578125 -1.265625 C 6.316406 -0.859375 5.957031 -0.523438 5.5 -0.265625 C 5.039062 -0.00390625 4.492188 0.125 3.859375 0.125 Z M 3.859375 0.125 "/></g></g></g><g fill="#132747" fill-opacity="1"><g transform="translate(129.388737, 14.819476)"><g><path d="M 2.84375 0 L 0.71875 0 L 0.71875 -2.109375 L 2.84375 -2.109375 Z M 2.84375 0 "/></g></g></g><g fill="#132747" fill-opacity="1"><g transform="translate(51.815446, 23.97717)"><g><path d="M 0.421875 0 L 0.421875 -3.703125 L 2.03125 -3.703125 C 2.226562 -3.703125 2.40625 -3.648438 2.5625 -3.546875 C 2.71875 -3.453125 2.84375 -3.316406 2.9375 -3.140625 C 3.039062 -2.972656 3.09375 -2.78125 3.09375 -2.5625 C 3.09375 -2.34375 3.039062 -2.144531 2.9375 -1.96875 C 2.84375 -1.800781 2.71875 -1.664062 2.5625 -1.5625 C 2.40625 -1.46875 2.226562 -1.421875 2.03125 -1.421875 L 0.84375 -1.421875 L 0.84375 0 Z M 2.03125 -1.828125 C 2.207031 -1.828125 2.359375 -1.894531 2.484375 -2.03125 C 2.609375 -2.164062 2.671875 -2.34375 2.671875 -2.5625 C 2.671875 -2.78125 2.609375 -2.957031 2.484375 -3.09375 C 2.359375 -3.226562 2.207031 -3.296875 2.03125 -3.296875 L 0.84375 -3.296875 L 0.84375 -1.828125 Z M 2.03125 -1.828125 "/></g></g></g><g fill="#132747" fill-opacity="1"><g transform="translate(56.749044, 23.97717)"><g><path d="M 1.6875 -1.421875 L 3.171875 0 L 2.640625 0 L 1.15625 -1.421875 L 0.84375 -1.421875 L 0.84375 0 L 0.421875 0 L 0.421875 -3.703125 L 2.03125 -3.703125 C 2.226562 -3.703125 2.40625 -3.648438 2.5625 -3.546875 C 2.71875 -3.453125 2.84375 -3.316406 2.9375 -3.140625 C 3.039062 -2.972656 3.09375 -2.78125 3.09375 -2.5625 C 3.09375 -2.34375 3.039062 -2.144531 2.9375 -1.96875 C 2.84375 -1.800781 2.71875 -1.664062 2.5625 -1.5625 C 2.40625 -1.46875 2.226562 -1.421875 2.03125 -1.421875 Z M 0.84375 -1.828125 L 2.03125 -1.828125 C 2.207031 -1.828125 2.359375 -1.894531 2.484375 -2.03125 C 2.609375 -2.164062 2.671875 -2.34375 2.671875 -2.5625 C 2.671875 -2.78125 2.609375 -2.957031 2.484375 -3.09375 C 2.359375 -3.226562 2.207031 -3.296875 2.03125 -3.296875 L 0.84375 -3.296875 Z M 0.84375 -1.828125 "/></g></g></g><g fill="#132747" fill-opacity="1"><g transform="translate(61.709025, 23.97717)"><g><path d="M 2.796875 0 L 0.421875 0 L 0.421875 -3.703125 L 2.796875 -3.703125 L 2.796875 -3.296875 L 0.84375 -3.296875 L 0.84375 -2.0625 L 2.6875 -2.0625 L 2.6875 -1.65625 L 0.84375 -1.65625 L 0.84375 -0.390625 L 2.796875 -0.390625 Z M 2.796875 0 "/></g></g></g><g fill="#132747" fill-opacity="1"><g transform="translate(66.378793, 23.97717)"><g><path d="M 0.84375 0 L 0.421875 0 L 0.421875 -3.703125 L 1.1875 -3.703125 L 2.328125 -0.46875 L 2.421875 -0.46875 L 3.5625 -3.703125 L 4.328125 -3.703125 L 4.328125 0 L 3.90625 0 L 3.90625 -3.140625 L 3.796875 -3.140625 L 2.6875 0 L 2.0625 0 L 0.953125 -3.140625 L 0.84375 -3.140625 Z M 0.84375 0 "/></g></g></g><g fill="#132747" fill-opacity="1"><g transform="translate(72.710683, 23.97717)"><g><path d="M 0.84375 0 L 0.421875 0 L 0.421875 -3.703125 L 0.84375 -3.703125 Z M 0.84375 0 "/></g></g></g><g fill="#132747" fill-opacity="1"><g transform="translate(75.560033, 23.97717)"><g><path d="M 1.828125 0.046875 C 1.554688 0.046875 1.304688 -0.015625 1.078125 -0.140625 C 0.859375 -0.265625 0.6875 -0.441406 0.5625 -0.671875 C 0.4375 -0.898438 0.375 -1.160156 0.375 -1.453125 L 0.375 -3.703125 L 0.796875 -3.703125 L 0.796875 -1.453125 C 0.796875 -1.234375 0.835938 -1.039062 0.921875 -0.875 C 1.015625 -0.707031 1.140625 -0.578125 1.296875 -0.484375 C 1.453125 -0.390625 1.628906 -0.34375 1.828125 -0.34375 C 2.015625 -0.34375 2.1875 -0.390625 2.34375 -0.484375 C 2.5 -0.578125 2.625 -0.707031 2.71875 -0.875 C 2.8125 -1.039062 2.859375 -1.234375 2.859375 -1.453125 L 2.859375 -3.703125 L 3.28125 -3.703125 L 3.28125 -1.453125 C 3.28125 -1.160156 3.210938 -0.898438 3.078125 -0.671875 C 2.953125 -0.441406 2.78125 -0.265625 2.5625 -0.140625 C 2.34375 -0.015625 2.097656 0.046875 1.828125 0.046875 Z M 1.828125 0.046875 "/></g></g></g><g fill="#132747" fill-opacity="1"><g transform="translate(80.783844, 23.97717)"><g><path d="M 0.84375 0 L 0.421875 0 L 0.421875 -3.703125 L 1.1875 -3.703125 L 2.328125 -0.46875 L 2.421875 -0.46875 L 3.5625 -3.703125 L 4.328125 -3.703125 L 4.328125 0 L 3.90625 0 L 3.90625 -3.140625 L 3.796875 -3.140625 L 2.6875 0 L 2.0625 0 L 0.953125 -3.140625 L 0.84375 -3.140625 Z M 0.84375 0 "/></g></g></g><g fill="#132747" fill-opacity="1"><g transform="translate(87.115735, 23.97717)"><g/></g></g><g fill="#132747" fill-opacity="1"><g transform="translate(89.91232, 23.97717)"><g><path d="M 1.640625 0.046875 C 1.359375 0.046875 1.109375 -0.00390625 0.890625 -0.109375 C 0.679688 -0.210938 0.519531 -0.347656 0.40625 -0.515625 C 0.289062 -0.691406 0.234375 -0.878906 0.234375 -1.078125 L 0.65625 -1.078125 C 0.65625 -0.941406 0.691406 -0.816406 0.765625 -0.703125 C 0.847656 -0.597656 0.960938 -0.507812 1.109375 -0.4375 C 1.253906 -0.375 1.429688 -0.34375 1.640625 -0.34375 C 1.953125 -0.34375 2.179688 -0.398438 2.328125 -0.515625 C 2.484375 -0.640625 2.5625 -0.800781 2.5625 -1 C 2.5625 -1.15625 2.507812 -1.285156 2.40625 -1.390625 C 2.300781 -1.492188 2.140625 -1.566406 1.921875 -1.609375 L 1.21875 -1.75 C 0.613281 -1.851562 0.3125 -2.164062 0.3125 -2.6875 C 0.3125 -2.894531 0.363281 -3.078125 0.46875 -3.234375 C 0.570312 -3.390625 0.71875 -3.515625 0.90625 -3.609375 C 1.101562 -3.703125 1.328125 -3.75 1.578125 -3.75 C 1.859375 -3.75 2.101562 -3.695312 2.3125 -3.59375 C 2.519531 -3.5 2.675781 -3.363281 2.78125 -3.1875 C 2.894531 -3.019531 2.953125 -2.828125 2.953125 -2.609375 L 2.53125 -2.609375 C 2.53125 -2.742188 2.492188 -2.867188 2.421875 -2.984375 C 2.347656 -3.097656 2.238281 -3.1875 2.09375 -3.25 C 1.945312 -3.320312 1.773438 -3.359375 1.578125 -3.359375 C 1.316406 -3.359375 1.109375 -3.296875 0.953125 -3.171875 C 0.804688 -3.046875 0.734375 -2.882812 0.734375 -2.6875 C 0.734375 -2.539062 0.785156 -2.414062 0.890625 -2.3125 C 0.992188 -2.21875 1.144531 -2.148438 1.34375 -2.109375 L 1.921875 -2 C 2.296875 -1.9375 2.566406 -1.820312 2.734375 -1.65625 C 2.898438 -1.5 2.984375 -1.28125 2.984375 -1 C 2.984375 -0.800781 2.929688 -0.617188 2.828125 -0.453125 C 2.722656 -0.296875 2.566406 -0.171875 2.359375 -0.078125 C 2.160156 0.00390625 1.921875 0.046875 1.640625 0.046875 Z M 1.640625 0.046875 "/></g></g></g><g fill="#132747" fill-opacity="1"><g transform="translate(94.740389, 23.97717)"><g><path d="M 2.796875 0 L 0.421875 0 L 0.421875 -3.703125 L 2.796875 -3.703125 L 2.796875 -3.296875 L 0.84375 -3.296875 L 0.84375 -2.0625 L 2.6875 -2.0625 L 2.6875 -1.65625 L 0.84375 -1.65625 L 0.84375 -0.390625 L 2.796875 -0.390625 Z M 2.796875 0 "/></g></g></g><g fill="#132747" fill-opacity="1"><g transform="translate(99.410158, 23.97717)"><g><path d="M 1.6875 -1.421875 L 3.171875 0 L 2.640625 0 L 1.15625 -1.421875 L 0.84375 -1.421875 L 0.84375 0 L 0.421875 0 L 0.421875 -3.703125 L 2.03125 -3.703125 C 2.226562 -3.703125 2.40625 -3.648438 2.5625 -3.546875 C 2.71875 -3.453125 2.84375 -3.316406 2.9375 -3.140625 C 3.039062 -2.972656 3.09375 -2.78125 3.09375 -2.5625 C 3.09375 -2.34375 3.039062 -2.144531 2.9375 -1.96875 C 2.84375 -1.800781 2.71875 -1.664062 2.5625 -1.5625 C 2.40625 -1.46875 2.226562 -1.421875 2.03125 -1.421875 Z M 0.84375 -1.828125 L 2.03125 -1.828125 C 2.207031 -1.828125 2.359375 -1.894531 2.484375 -2.03125 C 2.609375 -2.164062 2.671875 -2.34375 2.671875 -2.5625 C 2.671875 -2.78125 2.609375 -2.957031 2.484375 -3.09375 C 2.359375 -3.226562 2.207031 -3.296875 2.03125 -3.296875 L 0.84375 -3.296875 Z M 0.84375 -1.828125 "/></g></g></g><g fill="#132747" fill-opacity="1"><g transform="translate(104.37014, 23.97717)"><g><path d="M 2.03125 0 L 1.40625 0 L 0.046875 -3.703125 L 0.5 -3.703125 L 1.65625 -0.453125 L 1.765625 -0.453125 L 2.9375 -3.703125 L 3.375 -3.703125 Z M 2.03125 0 "/></g></g></g><g fill="#132747" fill-opacity="1"><g transform="translate(109.382889, 23.97717)"><g><path d="M 0.84375 0 L 0.421875 0 L 0.421875 -3.703125 L 0.84375 -3.703125 Z M 0.84375 0 "/></g></g></g><g fill="#132747" fill-opacity="1"><g transform="translate(112.232241, 23.97717)"><g><path d="M 2.03125 0.046875 C 1.707031 0.046875 1.410156 -0.03125 1.140625 -0.1875 C 0.867188 -0.34375 0.65625 -0.566406 0.5 -0.859375 C 0.34375 -1.148438 0.265625 -1.476562 0.265625 -1.84375 C 0.265625 -2.21875 0.34375 -2.546875 0.5 -2.828125 C 0.65625 -3.117188 0.867188 -3.34375 1.140625 -3.5 C 1.410156 -3.664062 1.707031 -3.75 2.03125 -3.75 C 2.425781 -3.75 2.769531 -3.632812 3.0625 -3.40625 C 3.363281 -3.1875 3.566406 -2.890625 3.671875 -2.515625 L 3.21875 -2.515625 C 3.125 -2.773438 2.972656 -2.976562 2.765625 -3.125 C 2.554688 -3.28125 2.3125 -3.359375 2.03125 -3.359375 C 1.78125 -3.359375 1.550781 -3.289062 1.34375 -3.15625 C 1.144531 -3.03125 0.984375 -2.851562 0.859375 -2.625 C 0.742188 -2.394531 0.6875 -2.132812 0.6875 -1.84375 C 0.6875 -1.550781 0.742188 -1.289062 0.859375 -1.0625 C 0.984375 -0.832031 1.144531 -0.65625 1.34375 -0.53125 C 1.550781 -0.40625 1.78125 -0.34375 2.03125 -0.34375 C 2.3125 -0.34375 2.554688 -0.414062 2.765625 -0.5625 C 2.972656 -0.71875 3.125 -0.9375 3.21875 -1.21875 L 3.671875 -1.21875 C 3.566406 -0.820312 3.363281 -0.507812 3.0625 -0.28125 C 2.769531 -0.0625 2.425781 0.046875 2.03125 0.046875 Z M 2.03125 0.046875 "/></g></g></g><g fill="#132747" fill-opacity="1"><g transform="translate(117.667114, 23.97717)"><g><path d="M 2.796875 0 L 0.421875 0 L 0.421875 -3.703125 L 2.796875 -3.703125 L 2.796875 -3.296875 L 0.84375 -3.296875 L 0.84375 -2.0625 L 2.6875 -2.0625 L 2.6875 -1.65625 L 0.84375 -1.65625 L 0.84375 -0.390625 L 2.796875 -0.390625 Z M 2.796875 0 "/></g></g></g><g fill="#132747" fill-opacity="1"><g transform="translate(122.336883, 23.97717)"><g><path d="M 1.640625 0.046875 C 1.359375 0.046875 1.109375 -0.00390625 0.890625 -0.109375 C 0.679688 -0.210938 0.519531 -0.347656 0.40625 -0.515625 C 0.289062 -0.691406 0.234375 -0.878906 0.234375 -1.078125 L 0.65625 -1.078125 C 0.65625 -0.941406 0.691406 -0.816406 0.765625 -0.703125 C 0.847656 -0.597656 0.960938 -0.507812 1.109375 -0.4375 C 1.253906 -0.375 1.429688 -0.34375 1.640625 -0.34375 C 1.953125 -0.34375 2.179688 -0.398438 2.328125 -0.515625 C 2.484375 -0.640625 2.5625 -0.800781 2.5625 -1 C 2.5625 -1.15625 2.507812 -1.285156 2.40625 -1.390625 C 2.300781 -1.492188 2.140625 -1.566406 1.921875 -1.609375 L 1.21875 -1.75 C 0.613281 -1.851562 0.3125 -2.164062 0.3125 -2.6875 C 0.3125 -2.894531 0.363281 -3.078125 0.46875 -3.234375 C 0.570312 -3.390625 0.71875 -3.515625 0.90625 -3.609375 C 1.101562 -3.703125 1.328125 -3.75 1.578125 -3.75 C 1.859375 -3.75 2.101562 -3.695312 2.3125 -3.59375 C 2.519531 -3.5 2.675781 -3.363281 2.78125 -3.1875 C 2.894531 -3.019531 2.953125 -2.828125 2.953125 -2.609375 L 2.53125 -2.609375 C 2.53125 -2.742188 2.492188 -2.867188 2.421875 -2.984375 C 2.347656 -3.097656 2.238281 -3.1875 2.09375 -3.25 C 1.945312 -3.320312 1.773438 -3.359375 1.578125 -3.359375 C 1.316406 -3.359375 1.109375 -3.296875 0.953125 -3.171875 C 0.804688 -3.046875 0.734375 -2.882812 0.734375 -2.6875 C 0.734375 -2.539062 0.785156 -2.414062 0.890625 -2.3125 C 0.992188 -2.21875 1.144531 -2.148438 1.34375 -2.109375 L 1.921875 -2 C 2.296875 -1.9375 2.566406 -1.820312 2.734375 -1.65625 C 2.898438 -1.5 2.984375 -1.28125 2.984375 -1 C 2.984375 -0.800781 2.929688 -0.617188 2.828125 -0.453125 C 2.722656 -0.296875 2.566406 -0.171875 2.359375 -0.078125 C 2.160156 0.00390625 1.921875 0.046875 1.640625 0.046875 Z M 1.640625 0.046875 "/></g></g></g></svg>